<?xml version="1.0" encoding="UTF-8" standalone="no"?>
<!-- Created with Inkscape (http://www.inkscape.org/) -->
<svg xmlns:dc="http://purl.org/dc/elements/1.1/" xmlns:cc="http://creativecommons.org/ns#" xmlns:rdf="http://www.w3.org/1999/02/22-rdf-syntax-ns#" xmlns:svg="http://www.w3.org/2000/svg" xmlns="http://www.w3.org/2000/svg" xmlns:sodipodi="http://sodipodi.sourceforge.net/DTD/sodipodi-0.dtd" xmlns:inkscape="http://www.inkscape.org/namespaces/inkscape" width="201.99045mm" height="184.32487mm" viewBox="0 0 715.71419 653.11963" id="svg2" version="1.1" inkscape:version="0.91 r13725" sodipodi:docname="104. steer wheel.svg" inkscape:export-filename="D:\0. Vexagrafi\InkGarden\104. steer wheel.png" inkscape:export-xdpi="241.4259" inkscape:export-ydpi="241.4259">
  <defs id="defs4"/>
  <sodipodi:namedview id="base" pagecolor="#ffffff" bordercolor="#666666" borderopacity="1.0" inkscape:pageopacity="0.0" inkscape:pageshadow="2" inkscape:zoom="0.57489269" inkscape:cx="179.00366" inkscape:cy="292.67976" inkscape:document-units="px" inkscape:current-layer="layer1" showgrid="false" inkscape:window-width="1366" inkscape:window-height="706" inkscape:window-x="-8" inkscape:window-y="-8" inkscape:window-maximized="1" showguides="true" inkscape:guide-bbox="true" fit-margin-top="0" fit-margin-left="0" fit-margin-right="0" fit-margin-bottom="0">
    <inkscape:grid type="xygrid" id="grid4175" originx="-58.571447" originy="-394.28577"/>
  </sodipodi:namedview>
  <metadata id="metadata7">
    <rdf:RDF>
      <cc:Work rdf:about="">
        <dc:format>image/svg+xml</dc:format>
        <dc:type rdf:resource="http://purl.org/dc/dcmitype/StillImage"/>
        <dc:title/>
      </cc:Work>
    </rdf:RDF>
  </metadata>
  <g inkscape:label="Layer 1" inkscape:groupmode="layer" id="layer1" transform="translate(-58.571445,-4.9568095)">
    <rect style="opacity:1;fill:#37474f;fill-opacity:1;fill-rule:evenodd;stroke:none;stroke-width:1;stroke-miterlimit:4;stroke-dasharray:none;stroke-dashoffset:0;stroke-opacity:0.99479167" id="rect4136" width="715.71417" height="653.11963" x="58.571445" y="4.9568095"/>
    <circle style="opacity:1;fill:#ffffff;fill-opacity:1;fill-rule:evenodd;stroke:none;stroke-width:1;stroke-miterlimit:4;stroke-dasharray:none;stroke-dashoffset:0;stroke-opacity:0.99479167" id="path4138" cx="374.28574" cy="383.07648" r="217.14285"/>
    <path sodipodi:nodetypes="ccccccccccc" inkscape:connector-curvature="0" id="path4191" d="m 194.8056,335.51963 3.50316,6.13047 36.34494,-10.94728 c 6.70617,-6.72452 13.30671,-13.58109 18.39142,-22.33245 2.34124,-7.44997 1.86171,-14.11369 3.50312,-18.8293 59.04719,-75.48005 171.75461,-84.14985 239.4733,1.07916 3.80716,5.8039 -0.52774,10.1388 2.24258,16.87437 4.4238,8.95891 10.75915,16.87517 18.39143,24.08401 l 39.41019,10.50937 1.31368,-6.13047 C 496.9621,155.50945 258.44271,153.50013 194.8056,335.51963 Z" style="fill:#37474f;fill-rule:evenodd;stroke:none;stroke-width:0.43349001px;stroke-linecap:butt;stroke-linejoin:miter;stroke-opacity:1"/>
    <path sodipodi:nodetypes="cccccccc" inkscape:connector-curvature="0" id="path4193" d="m 458.47508,360.58346 15.53825,52.66993 c 65.32197,4.81836 44.84962,37.22071 20.30978,72.90075 l 8.75781,38.97232 c 31.80811,-32.04572 66.71389,-71.30157 59.99108,-164.20915 l -37.65863,-12.26096 c -0.0333,7.58345 1.20289,15.4208 -4.37892,21.89456 -18.79062,10.11053 -45.16426,-3.04901 -62.55937,-9.96745 z" style="fill:#37474f;fill-rule:evenodd;stroke:none;stroke-width:0.43349001px;stroke-linecap:butt;stroke-linejoin:miter;stroke-opacity:1"/>
    <path style="fill:#37474f;fill-rule:evenodd;stroke:none;stroke-width:0.43349001px;stroke-linecap:butt;stroke-linejoin:miter;stroke-opacity:1" d="m 289.60202,362.39247 -14.94574,52.005 c -65.322,4.81837 -41.98558,36.07663 -17.44576,71.75667 l -8.7578,38.97232 C 216.64461,493.08074 181.73878,453.82489 188.4616,360.91731 l 37.65867,-12.26096 c 0.0333,7.58345 -1.20289,15.4208 4.3789,21.89456 18.79062,10.11053 41.70772,-1.24 59.10285,-8.15844 z" id="path4195" inkscape:connector-curvature="0" sodipodi:nodetypes="cccccccc"/>
    <path sodipodi:nodetypes="ccccccccc" inkscape:connector-curvature="0" id="path4197" d="m 268.15237,496.22563 -9.85258,36.34497 c 81.17433,58.55814 158.93203,52.88392 234.27175,1.75157 l -9.6336,-38.09654 c -20.18326,16.91171 -57.37295,44.12768 -77.06883,31.96607 -9.17445,-8.90909 -7.55602,-21.77537 -6.56837,-31.96607 l -51.4522,0 c -1.16693,11.73419 -1.32375,25.04102 -13.79356,32.84186 -19.07078,5.63558 -47.05342,-17.59545 -65.90261,-32.84186 z" style="fill:#37474f;fill-rule:evenodd;stroke:none;stroke-width:0.43349001px;stroke-linecap:butt;stroke-linejoin:miter;stroke-opacity:1"/>
    <path sodipodi:nodetypes="cccccccccc" inkscape:connector-curvature="0" id="path4199" d="m 471.11487,413.46424 -15.76408,-54.2985 c -33.0919,-12.63681 -57.65503,-20.37176 -80.57501,-20.59694 -27.0751,-0.0255 -48.82748,9.86108 -81.00678,21.91061 l -15.32619,53.8606 c 17.32242,2.24665 35.54387,2.76439 47.73012,14.8883 8.9322,10.76477 18.01331,37.82274 21.99238,62.80161 l 51.29691,-0.17857 c 3.50302,-21.23481 9.08103,-53.9082 24.79831,-67.43984 14.39002,-9.38019 30.79498,-9.35733 46.85434,-10.94727 z" style="fill:#37474f;fill-rule:evenodd;stroke:none;stroke-width:0.43349001px;stroke-linecap:butt;stroke-linejoin:miter;stroke-opacity:1"/>
    <path inkscape:connector-curvature="0" style="opacity:1;fill:#ffffff;fill-opacity:0.65921786;fill-rule:evenodd;stroke:none;stroke-width:1;stroke-miterlimit:4;stroke-dasharray:none;stroke-dashoffset:0;stroke-opacity:0.99479167" d="m 373.90307,350.8462 a 42.037407,42.037407 0 0 0 -42.03737,42.03737 42.037407,42.037407 0 0 0 42.03737,42.03738 42.037407,42.037407 0 0 0 42.03737,-42.03738 42.037407,42.037407 0 0 0 -42.03737,-42.03737 z m -0.2001,5.00428 a 36.832779,36.832779 0 0 1 36.83279,36.8328 36.832779,36.832779 0 0 1 -36.83279,36.83278 36.832779,36.832779 0 0 1 -36.8328,-36.83278 36.832779,36.832779 0 0 1 36.8328,-36.8328 z" id="path4201"/>
    <path style="fill:#ffffff;fill-rule:evenodd;stroke:none;stroke-width:1px;stroke-linecap:butt;stroke-linejoin:miter;stroke-opacity:1" d="M 155.71484,42.446272 C 121.19983,85.155418 98.701789,288.90303 98.572266,392.36133 l 60.000004,0 54.28515,-143.9336 L 310,180.29102 c 0,0 128.57227,-10.15177 138.57227,5.71289 10,15.86466 88.57031,60.41797 88.57031,60.41797 L 590,383.54883 l 184.28516,0 0,-341.102558 z" id="path4203" inkscape:connector-curvature="0" sodipodi:nodetypes="cccccsccccc"/>
  </g>
</svg>