<?xml version="1.0" encoding="UTF-8" standalone="no"?>
<svg
   width="2730.667"
   height="2730.667"
   version="1.0"
   viewBox="0 0 2048 2048"
   id="svg15"
   sodipodi:docname="Gemini_Generated_Image_c8ltkwc8ltkwc8lt Kopie black(1).svg"
   inkscape:version="1.3.2 (091e20e, 2023-11-25)"
   xmlns:inkscape="http://www.inkscape.org/namespaces/inkscape"
   xmlns:sodipodi="http://sodipodi.sourceforge.net/DTD/sodipodi-0.dtd"
   xmlns="http://www.w3.org/2000/svg"
   xmlns:svg="http://www.w3.org/2000/svg">
  <defs
     id="defs15" />
  <sodipodi:namedview
     id="namedview15"
     pagecolor="#ffffff"
     bordercolor="#000000"
     borderopacity="0.25"
     inkscape:showpageshadow="2"
     inkscape:pageopacity="0.0"
     inkscape:pagecheckerboard="0"
     inkscape:deskcolor="#d1d1d1"
     inkscape:zoom="0.19079588"
     inkscape:cx="1365.3335"
     inkscape:cy="1362.7129"
     inkscape:window-width="1392"
     inkscape:window-height="951"
     inkscape:window-x="0"
     inkscape:window-y="44"
     inkscape:window-maximized="0"
     inkscape:current-layer="svg15" />
  <path
     d="M10106 7053c-2-10-17-78-32-151-24-115-30-132-45-127-88 28-313 33-404 10-152-40-202-120-260-415-39-204-32-277 33-332 39-33 108-48 216-48 112 0 191 16 255 52l54 30-7-36-7-36h101c55 0 100 1 100 3s47 242 105 533 105 530 105 532c0 1-47 2-104 2-91 0-105-2-110-17zm-101-445c7-7-59-358-75-394-12-29-78-44-198-44-114 0-160 12-168 44-6 26 18 164 48 279 16 60 27 83 51 103 30 25 31 25 183 22 84-2 155-6 159-10z"
     style="fill:red;stroke:red;stroke-opacity:1;stroke-width:20.00000003;stroke-dasharray:none"
     transform="matrix(.1 0 0 -.1 0 2048)"
     id="path10"
     inkscape:export-filename="path10.svg"
     inkscape:export-xdpi="96"
     inkscape:export-ydpi="96" />
  <path
     d="M14855 6920c-24-122-32-149-45-145-98 29-309 35-405 10-148-39-193-109-252-395-48-234-35-318 57-370 38-21 61-25 160-28 137-5 222 12 288 59l44 30-4-38-3-38 90 3c50 2 93 7 96 10 4 4 54 242 112 530l104 522h-212l-30-150zm-70-312c4-3-13-97-36-207l-43-201-50-15c-70-21-254-20-284 1-30 20-29 75 2 224 30 142 37 162 73 190 26 21 35 22 180 18 83-1 154-6 158-10z"
     style="stroke:red;stroke-opacity:1;stroke-width:20.00000003;stroke-dasharray:none;fill:#fc0"
     transform="matrix(.1 0 0 -.1 0 2048)"
     id="path11" />
  <path
     d="M5672 7001c-98-34-146-101-183-259-25-102-22-180 7-220 11-15 41-38 67-50 40-21 69-25 224-34 303-16 298-14 291-113-7-85-27-119-83-141-41-15-75-17-330-11l-284 6-11-53c-21-103-20-109 25-118 72-15 536-22 610-9 120 21 201 76 244 165 47 96 67 295 37 354-35 68-99 84-398 100-188 10-193 12-185 92 3 30 10 67 17 81 24 52 39 54 362 54 164 0 298 1 298 1 0 1 7 37 16 79 13 65 14 79 2 86-7 5-161 9-343 9-294-1-336-3-383-19z"
     style="fill:red;stroke:red;stroke-opacity:1;stroke-width:20.00000003;stroke-dasharray:none"
     transform="matrix(.1 0 0 -.1 0 2048)"
     id="path12" />
  <path
     d="M10446 6528c-55-271-102-501-104-511-4-17 13-18 384-15 377 3 390 4 437 25 78 36 104 60 136 126 54 109 75 260 46 317-16 31-61 60-92 60-10 0 5 11 34 24 65 31 96 76 123 180 37 144 21 219-54 259-40 21-51 22-426 25l-385 3-99-493zm739 302c19-21 17-63-5-140-15-53-31-70-75-80-51-12-425-13-425-1s39 201 46 224c5 15 24 17 223 17 205 0 219-1 236-20zm-63-407c21-22 22-25 10-95-7-40-21-86-30-103-29-48-62-54-300-47-190 4-212 7-207 21 3 9 14 59 25 111s23 106 26 118l5 24 224-4c217-3 225-4 247-25z"
     style="stroke:red;stroke-opacity:1;stroke-width:20.00000003;stroke-dasharray:none;fill:#fc0"
     transform="matrix(.1 0 0 -.1 0 2048)"
     id="path13" />
  <path
     d="M6917 6789c-47-11-95-35-125-62l-23-21 7 42 7 42h-201l-7-32c-3-18-20-94-36-168-37-173-170-816-177-853l-4-28 108 3 108 3 31 152c16 83 33 154 36 157 3 4 23-2 45-11 56-25 338-25 403 0 92 36 156 109 185 211 27 95 66 316 66 376 0 34-6 75-14 93-17 42-66 83-114 97-44 12-242 12-295-1zm145-169c66-19 70-44 33-227-30-148-51-195-97-214-36-15-304-17-319-2-4 4 7 82 26 173 18 91 36 182 39 202 4 22 15 42 26 48 47 25 229 37 292 20zM7744 6785c-152-33-210-105-259-320-37-164-50-282-36-332 28-101 90-132 288-140 112-5 410 11 422 22 4 4 30 124 31 140 0 6-86 10-238 10-287 0-292 2-292 90v55l292 2 292 3 28 110c59 241 23 334-141 365-75 14-314 11-387-5zm314-171c17-12 22-25 22-62 0-98 13-92-196-92-208 0-197-6-163 85 28 77 46 84 194 85 93 0 126-4 143-16zM8700 6790c-123-26-200-99-240-227-29-95-60-253-66-341-5-67-3-83 18-122 46-90 155-117 423-106 163 7 260 17 271 29 5 5 32 117 34 138 0 4-85 4-188 1-298-8-347 5-347 91 0 25 4 49 8 54 5 4 137 8 295 8h286l17 70c50 193 49 282-2 339-51 59-92 69-289 72-96 2-195-1-220-6zm308-176c17-12 22-25 22-62 0-98 13-92-197-92h-185l7 36c10 58 36 102 69 118 44 22 253 22 284 0z"
     style="fill:red;stroke:red;stroke-opacity:1;stroke-width:20.00000003;stroke-dasharray:none"
     transform="matrix(.1 0 0 -.1 0 2048)"
     id="path14" />
  <path
     d="M11800 6787c-170-38-229-141-285-491-31-194 11-267 172-297 85-16 384-6 450 15 79 25 133 71 171 146 57 114 107 393 88 494-9 47-55 99-109 122-34 14-77 18-237 21-129 1-214-2-250-10zm299-166c88-13 97-43 61-217-30-147-47-190-83-216-30-21-43-23-170-23-136 0-139 1-159 25-24 30-22 85 12 250 22 106 42 154 69 166 44 20 183 27 270 15zM12747 6790c-43-4-79-9-81-11-5-7-33-149-30-152 2-1 47 1 101 6 112 10 327 2 367-12 23-9 26-16 26-60 0-27-6-53-13-59s-98-12-232-14c-203-3-223-5-260-25-79-42-116-107-134-233-25-174 27-231 219-238 135-6 223 10 293 52l55 33-6-40-5-40 33 6c18 4 61 7 95 7 61 0 63 1 67 28 3 15 28 139 57 275 73 354 69 406-38 455-53 24-66 26-246 28-104 1-225-1-268-6zm343-457c-1-10-6-45-13-78-15-71-31-82-141-96-98-13-199-3-222 22-16 18-17 26-6 77 18 89 25 92 218 92 150 0 164-2 164-17zM13932 6783c-31-9-70-31-96-54-24-22-46-39-49-39-2 0-1 19 3 42 6 29 5 45-3 50-7 4-50 8-97 8h-86l-16-77c-10-43-46-217-82-386s-68-312-71-317c-4-6 36-10 104-10h110l15 73c9 39 34 157 56 261 34 164 43 193 67 218 37 39 109 58 219 58h93l11 58c6 31 15 71 20 89 4 17 5 34 2 37-11 12-149 4-200-11z"
     style="stroke:red;stroke-opacity:1;stroke-width:20.00000003;stroke-dasharray:none;fill:#fc0"
     transform="matrix(.1 0 0 -.1 0 2048)"
     id="path15" />
</svg>
